PathFileType	4	(X/Y/Z)	E:\Qualisys_Data\Carbon_Farble_Plate\Data\Amateur_Runner\S1\T3\S1T3V21_c3d.trc
DataRate	CameraRate	NumFrames	NumMarkers	Units	OrigDataRate	OrigDataStartFrame	OrigNumFrames
200.000000	200.000000	5	39	mm	200.000000	223	298
Frame#	Time	LSHO			RSHO			LICST			RICST			LASIS			LHEEL			RASIS			LTROC			RTROC			SACR			LTH1			LSK4			LTH2			LTH3			RHM5			LSK2			LTH4			RTH1			LTOE			RTH2			RTH3			RTH4			LLEP			RLEP			LSK1			LSK3			RSK1			LHM5			RSK2			LFT1			RSK3			RSK4			LLME			RLME			RTOE			RHEEL			RFT1			RFT2			LFT2			
		X1	Y1	Z1	X2	Y2	Z2	X3	Y3	Z3	X4	Y4	Z4	X5	Y5	Z5	X6	Y6	Z6	X7	Y7	Z7	X8	Y8	Z8	X9	Y9	Z9	X10	Y10	Z10	X11	Y11	Z11	X12	Y12	Z12	X13	Y13	Z13	X14	Y14	Z14	X15	Y15	Z15	X16	Y16	Z16	X17	Y17	Z17	X18	Y18	Z18	X19	Y19	Z19	X20	Y20	Z20	X21	Y21	Z21	X22	Y22	Z22	X23	Y23	Z23	X24	Y24	Z24	X25	Y25	Z25	X26	Y26	Z26	X27	Y27	Z27	X28	Y28	Z28	X29	Y29	Z29	X30	Y30	Z30	X31	Y31	Z31	X32	Y32	Z32	X33	Y33	Z33	X34	Y34	Z34	X35	Y35	Z35	X36	Y36	Z36	X37	Y37	Z37	X38	Y38	Z38	X39	Y39	Z39	

224	1.115	1549.119018554688	1489.6103515625	-576.930419921875	1616.682861328125	1505.940185546875	-263.0934753417969	1578.456298828125	1035.389282226562	-526.4295043945312	1591.7177734375	1045.970703125	-228.0690002441406	1625.796630859375	1000.083801269531	-503.2101440429688	1711.246337890625	72.5323257446289	-421.1070251464844	1627.132202148438	996.140869140625	-239.1478271484375	1530.100830078125	910.7205200195312	-545.3429565429688	1509.18798828125	916.0888061523438	-200.0110015869141	1466.828369140625	1052.829345703125	-368.4640502929688	1699.167236328125	793.1622924804688	-522.9817504882812	1688.031860351562	228.8302612304688	-455.1601867675781	1623.606689453125	760.3387451171875	-548.9216918945312	1729.7890625	695.2996215820312	-501.3523254394531	1034.832641601562	277.5991516113281	-236.5068511962891	1680.568603515625	325.7319946289062	-496.7812805175781	1650.779418945312	667.0990600585938	-522.3824462890625	1606.322143554688	765.2158203125	-232.6542663574219	1954.485595703125	134.2175903320312	-425.7216186523438	1532.711059570312	777.6129760742188	-204.1356658935547	1587.872436523438	666.4171752929688	-238.4510345458984	1510.44921875	680.9501342773438	-220.1600036621094	1725.21728515625	539.3812255859375	-481.7476806640625	1489.556396484375	512.7410888671875	-250.6564178466797	1765.027099609375	329.9559020996094	-485.4220275878906	1766.363891601562	228.6083221435547	-478.1658020019531	1312.230346679688	452.3913879394531	-235.2926177978516	1894.207153320312	93.8583755493164	-484.7579345703125	1291.646606445312	529.0202026367188	-255.075927734375	1726.501953125	48.94907760620117	-391.5429992675781	1216.81982421875	422.4595336914062	-247.7699890136719	1197.762817382812	496.7194519042969	-275.6088256835938	1754.890625	104.3755340576172	-469.2898559570312	1084.306762695312	420.1146850585938	-250.911865234375	1057.5400390625	223.7692108154297	-306.2598876953125	1039.084106445312	474.6405334472656	-298.0675964355469	1014.377197265625	461.6678466796875	-329.8778686523438	1013.224304199219	470.4668579101562	-277.7229614257812	1723.970458984375	44.68805694580078	-441.8383483886719
225	1.12	1570.66162109375	1484.381591796875	-578.2363891601562	1636.664916992188	1501.097290039062	-263.5707397460938	1597.480224609375	1031.344116210938	-526.6503295898438	1610.8310546875	1041.324462890625	-228.0081787109375	1644.689086914062	995.6878662109376	-504.012451171875	1717.878784179688	70.51681518554688	-421.0797424316406	1646.233276367188	991.0394897460938	-239.7796325683594	1548.767211914062	906.0673217773438	-545.04931640625	1529.141967773438	910.3897094726562	-201.0732727050781	1485.914794921875	1047.602783203125	-368.6539306640625	1718.162719726562	788.7696533203125	-523.2265625	1699.715087890625	224.3474884033203	-454.9861145019531	1642.888916015625	756.1060180664062	-548.6721801757812	1750.107788085938	691.52490234375	-501.4100952148438	1061.87158203125	281.1979675292969	-235.6578979492188	1694.33056640625	320.4100952148438	-496.1891479492188	1670.997924804688	662.6654663085938	-521.1342163085938	1629.30224609375	761.0164184570312	-231.7385864257812	1963.328491210938	117.8331298828125	-425.6211547851562	1555.51123046875	771.979248046875	-204.2894287109375	1613.025146484375	661.5146484375	-237.6540985107422	1534.84765625	674.3491821289062	-219.8699035644531	1743.336547851562	534.0363159179688	-482.291748046875	1518.5927734375	506.6597290039062	-250.0093383789062	1778.968627929688	323.0697021484375	-484.49853515625	1777.714965820312	221.9401245117188	-477.1803283691406	1341.48388671875	449.7228088378906	-234.81005859375	1900.186401367188	79.34980773925781	-482.9894104003906	1322.417236328125	526.5416259765625	-255.6185760498047	1731.918212890625	47.55610656738281	-390.4331665039062	1245.717407226562	421.8578186035156	-247.8449554443359	1228.09375	496.1258544921875	-276.3048095703125	1762.899047851562	99.2807846069336	-468.5180969238281	1113.107177734375	423.2017211914062	-250.9146575927734	1084.599975585938	225.967041015625	-303.7951354980469	1068.845825195312	477.1822204589844	-299.7523193359375	1044.2861328125	464.2957153320312	-331.6399230957031	1043.068359375	473.43212890625	-279.3969116210938	1728.916748046875	43.12836074829102	-441.4656066894531
226	1.125	1592.2998046875	1478.54833984375	-579.1646728515625	1656.181030273438	1496.005737304688	-264.2636413574219	1616.673095703125	1026.73828125	-526.9943237304688	1629.796508789062	1035.871459960938	-227.7858276367188	1663.900512695312	991.3595581054688	-504.6157531738281	1724.420532226562	71.6350326538086	-423.1973266601562	1665.263427734375	986.3969116210938	-240.1880645751953	1567.479248046875	901.1693725585938	-545.1012573242188	1548.77587890625	904.3316650390624	-201.82421875	1504.786499023438	1042.704956054688	-368.4539489746094	1737.127319335938	784.1931762695312	-523.072998046875	1710.926879882812	220.0760803222656	-454.5684204101562	1662.256103515625	750.7031860351562	-548.2188110351562	1769.301513671875	686.8858032226562	-503.823974609375	1089.895629882812	284.6292114257812	-234.52001953125	1709.102172851562	315.7645263671875	-495.8358154296875	1690.371337890625	657.6814575195312	-520.3006591796875	1652.743408203125	756.8016357421875	-230.9876251220703	1971.806762695312	101.2086334228516	-425.0126037597656	1577.767211914062	765.9553833007812	-204.4905090332031	1638.238159179688	656.5421752929688	-236.4625549316406	1560.026123046875	668.163818359375	-219.4829254150391	1761.357421875	528.2144775390625	-482.710205078125	1548.36279296875	500.527099609375	-249.1731262207031	1792.725463867188	316.3235473632812	-483.2578125	1789.316284179688	215.5965576171875	-475.6815795898438	1371.447998046875	447.1340637207031	-234.2069244384766	1906.273559570312	65.84829711914062	-482.2564392089844	1354.194091796875	524.2405395507812	-256.3522033691406	1735.004150390625	46.56451797485352	-390.9920349121094	1275.234497070312	420.5968933105469	-248.1619262695312	1259.099853515625	495.0233154296875	-277.0580444335938	1769.174682617188	96.05793762207033	-471.3940124511719	1142.854125976562	425.312744140625	-252.0556945800781	1112.937255859375	228.0661010742188	-302.3038024902344	1099.020141601562	479.3286437988281	-301.6943664550781	1074.942626953125	466.3800048828125	-333.8719177246094	1072.986572265625	476.265869140625	-281.5693359375	1732.8466796875	40.03644943237305	-442.5162658691406
227	1.13	1614.281982421875	1472.799438476562	-580.8483276367188	1675.846435546875	1490.883178710938	-264.6341552734375	1633.8056640625	1021.123962402344	-528.34716796875	1648.244018554688	1030.683471679688	-227.8456878662109	1683.413208007812	986.7994995117188	-504.776611328125	1729.495483398438	71.90280151367188	-424.0235900878906	1684.109375	981.1475219726562	-241.3667297363281	1586.285278320312	895.7203369140625	-545.5114135742188	1568.5673828125	898.5076293945312	-202.9509429931641	1523.906127929688	1037.300903320312	-369.1047058105469	1755.700561523438	778.773681640625	-523.5231323242188	1721.805419921875	216.510986328125	-454.5663757324219	1680.853881835938	745.3828125	-548.2550659179688	1787.7041015625	681.5017700195312	-504.4299926757812	1118.699951171875	287.2249755859375	-233.8211975097656	1723.5869140625	311.9779357910156	-495.8983459472656	1708.9013671875	652.115478515625	-520.6365356445312	1675.407104492188	752.5689697265625	-230.1201171875	1979.37841796875	85.63971710205078	-421.2076416015625	1600.416137695312	759.6480712890625	-204.1698150634766	1663.971923828125	651.8831787109375	-235.4017791748047	1585.309692382812	661.3727416992188	-219.1751708984375	1780.0947265625	522.6515502929688	-482.9486389160156	1578.531860351562	494.086181640625	-247.5117340087891	1807.0654296875	310.7079162597656	-482.2536315917969	1799.333129882812	209.7929229736328	-474.9006042480469	1401.731811523438	444.0589599609375	-234.3625640869141	1912.347290039062	55.47173309326172	-480.2580871582031	1386.0771484375	521.1328735351562	-256.5294494628906	1738.377319335938	46.22291564941406	-391.4469604492188	1304.954956054688	419.5875549316406	-248.4021759033203	1290.56103515625	494.2994995117188	-277.7126159667969	1776.508056640625	92.08570098876952	-471.2701110839844	1172.904174804688	426.9410705566406	-252.6918487548828	1141.682495117188	229.4084625244141	-300.6269836425781	1129.85498046875	480.8759155273438	-303.4862976074219	1105.872802734375	467.2668151855469	-335.3040466308594	1103.959350585938	478.4547729492188	-283.5530700683594	1736.499755859375	38.13714599609375	-443.0178833007812
228	1.135	1636.443725585938	1467.14453125	-582.3048706054688	1695.688598632812	1485.33056640625	-264.6635437011719	1653.11376953125	1016.461486816406	-528.8604125976562	1666.684692382812	1025.685424804688	-228.8258209228516	1704.968383789062	983.3243408203124	-505.7284545898438	1733.2470703125	72.04271697998047	-425.72265625	1703.251220703125	976.3380737304688	-241.0567779541016	1604.8525390625	890.2893676757812	-546.70166015625	1588.38330078125	892.0457153320312	-204.3851318359375	1542.307250976562	1031.91064453125	-369.5208129882812	1773.92041015625	772.64404296875	-523.8890380859375	1732.966796875	213.9735870361328	-455.2826232910156	1699.1123046875	739.8768310546875	-549.1129760742188	1805.762451171875	674.9434814453125	-504.8980102539062	1148.621337890625	289.8919372558594	-233.4116821289062	1738.18505859375	309.6211547851562	-495.994384765625	1726.523315429688	646.4371948242188	-521.9351196289062	1698.90673828125	748.2984619140625	-229.2651214599609	1983.759765625	77.62874603271484	-417.194091796875	1623.098022460938	753.5358276367188	-204.3397216796875	1689.954833984375	647.6913452148438	-234.0635223388672	1610.753662109375	654.919189453125	-218.0127410888672	1799.164306640625	517.0562744140625	-482.8738708496094	1609.205810546875	488.2969055175781	-246.5442352294922	1821.583618164062	305.514404296875	-481.1503295898438	1810.208374023438	205.0782928466797	-474.60107421875	1432.5634765625	441.2761840820312	-233.8359527587891	1917.442138671875	57.8648796081543	-482.6737365722656	1418.485717773438	518.5082397460938	-257.0513000488281	1740.573852539062	46.22952270507812	-392.4393920898438	1335.946533203125	418.5806579589844	-248.1886749267578	1322.76123046875	493.0574645996094	-278.0276489257812	1785.274047851562	88.4480209350586	-469.5755920410156	1203.528686523438	428.388671875	-253.49560546875	1171.6240234375	230.5319671630859	-299.1677551269531	1160.9453125	482.3014221191406	-305.16650390625	1137.025756835938	468.2654418945312	-337.1016845703125	1134.761962890625	480.0643310546875	-285.276123046875	1738.599487304688	38.59068298339844	-444.1360473632812
